<svg xmlns="http://www.w3.org/2000/svg" viewBox="0 0 513.58 240"><defs><style>.cls-1{fill:#1940bc;}.cls-1,.cls-2,.cls-3{stroke:#000;stroke-width:20px;}.cls-1,.cls-2{stroke-miterlimit:10;}.cls-2,.cls-3{fill:#fff;}.cls-3{stroke-linejoin:bevel;}.cls-4{fill:#76c0e5;}</style></defs><title>Fichier 1</title><g id="Calque_2" data-name="Calque 2"><g id="Calque_1-2" data-name="Calque 1"><path class="cls-1" d="M257.33,10c70.06,0,238,110,238,110s-167.94,110-238,110-239-110-239-110S187.27,10,257.33,10Z"/><path class="cls-2" d="M257.33,13a107,107,0,1,0,107,107h-107Z"/><polyline class="cls-3" points="257.33 120 277.33 120 294.33 120 364.33 120 257.33 120 257.33 13"/><path d="M318.61,181.28l-.54-.17c-.35-.11-.89-.26-1.55-.5s-1.5-.51-2.44-.87-2-.77-3.21-1.26c-2.38-1-5.2-2.22-8.34-3.75s-6.58-3.36-10.22-5.46a211.24,211.24,0,0,1-23.45-15.81A254.61,254.61,0,0,1,245,132.37c-3.82-3.84-7.55-7.78-11.09-11.77s-6.9-8.07-10-12.11A208.78,208.78,0,0,1,208,85c-2.1-3.64-3.92-7.09-5.45-10.23s-2.77-6-3.74-8.35c-.49-1.19-.91-2.26-1.26-3.22s-.64-1.77-.87-2.44-.38-1.2-.49-1.56l-.16-.54.54.16c.35.11.89.26,1.56.49s1.5.51,2.44.87,2,.77,3.22,1.26c2.38,1,5.21,2.21,8.35,3.74s6.58,3.35,10.23,5.45A208.77,208.77,0,0,1,245.82,86.5c4,3.14,8.12,6.48,12.11,10s7.94,7.27,11.77,11.09a254.61,254.61,0,0,1,21.09,23.91A211.24,211.24,0,0,1,306.6,155c2.1,3.64,3.92,7.09,5.46,10.22s2.78,6,3.75,8.34c.49,1.18.92,2.26,1.26,3.21s.64,1.77.87,2.44.38,1.2.5,1.55Z"/><path class="cls-4" d="M257.33,147.5a27.5,27.5,0,1,1,27.5-27.5A27.53,27.53,0,0,1,257.33,147.5Z"/><path class="cls-4" d="M257.33,105a15,15,0,1,1-15,15,15,15,0,0,1,15-15m0-25a40,40,0,1,0,40,40,40,40,0,0,0-40-40Z"/></g></g></svg>