<svg xmlns="http://www.w3.org/2000/svg" viewBox="0 0 263.49 226"><defs><style>.cls-1,.cls-2,.cls-3,.cls-4{stroke:#000;stroke-miterlimit:10;}.cls-1,.cls-3{stroke-width:8px;}.cls-2,.cls-3{fill:none;}.cls-2,.cls-3,.cls-4{stroke-linecap:round;}.cls-2{stroke-width:7px;}.cls-4{stroke-width:5px;}</style></defs><title>Fichier 6</title><g id="Calque_2" data-name="Calque 2"><g id="Carapuce"><circle class="cls-1" cx="116.91" cy="147" r="2.5"/><path class="cls-2" d="M224.82,157.5c-2.06,4-38.46,17.5-45.74,17.5-9,0-18.68-5.81-30.87-8-4.06-.72-13.47,9.53-16.47,9.55s-12.4-10.26-16.47-9.55c-12.19,2.15-21.89,8-30.88,8-7.28,0-43.68-13.5-45.74-17.5"/><circle class="cls-1" cx="146.58" cy="147" r="2.5"/><path class="cls-3" d="M229.66,44.36C207,19.09,171.55,4,131.75,4"/><path class="cls-3" d="M131.75,222c68.48,0,124-44.67,124-109a104.25,104.25,0,0,0-4.68-31.24"/><path class="cls-3" d="M33.83,44.36C56.52,19.09,91.94,4,131.75,4"/><path class="cls-3" d="M131.75,222c-68.48,0-124-44.67-124-109a104.25,104.25,0,0,1,4.68-31.24"/><path d="M73.09,137.66a21.48,21.48,0,0,1-6.41-.9c-11.77-3.67-26.56-20.19-43.95-49.09C10.07,66.61.48,46.27.38,46.07a4,4,0,0,1,5.34-5.31c44.16,21,117.43,54.31,126,54.31s81.87-33.31,126-54.31a4,4,0,0,1,5.34,5.31c-.1.2-9.68,20.54-22.35,41.6-17.39,28.91-32.17,45.42-43.95,49.09-10.28,3.21-24.87-2.78-39-8.57-9.68-4-19.68-8.07-26.08-8.07s-16.41,4.1-26.08,8.07C94.28,132.86,82.58,137.66,73.09,137.66ZM12.63,52.87c13.21,26,39,70.83,56.43,76.25,7.53,2.35,21.36-3.33,33.56-8.33,10.87-4.46,21.14-8.67,29.12-8.67s18.25,4.21,29.12,8.67c12.21,5,26,10.68,33.56,8.33,17.39-5.43,43.22-50.25,56.43-76.25-31.59,14.88-107.75,50.19-119.11,50.19S44.22,67.75,12.63,52.87Z"/><path d="M71.51,79.71l19.86,8.73L70.19,126.26,52.37,113,71.51,79.71m-2.1-6.38-23.6,41,26,19.31L98.42,86.08l-29-12.75Z"/><path d="M219,69l-32.9,58.07-17.33-4.64,26-42.85L219,69m11.75-10.6h0Zm0,0L191.34,75.68,161,125.58l27.51,7.36,42.21-74.51Z"/><polygon class="cls-4" points="12.63 52.87 45.82 114.35 69.42 73.33 12.63 52.87"/><polygon points="94.99 90.16 131.75 103.06 187.78 81.76 161 125.58 131.75 112.12 70.93 133.97 94.99 90.16"/><polygon points="224.82 65.01 250.86 52.87 230.72 99.33 207.6 125.83 188.51 132.94 224.82 65.01"/></g></g></svg>