<svg xmlns="http://www.w3.org/2000/svg" viewBox="0 0 265.49 226"><defs><style>.cls-1,.cls-3,.cls-4,.cls-5{fill:none;stroke-width:8px;}.cls-1,.cls-2,.cls-3,.cls-4,.cls-5,.cls-6{stroke:#000;}.cls-1,.cls-2,.cls-3,.cls-6{stroke-miterlimit:10;}.cls-2{stroke-width:6px;}.cls-3,.cls-4{stroke-linecap:round;}.cls-4{stroke-linejoin:round;}.cls-5{stroke-linejoin:bevel;}.cls-6{stroke-width:5px;}</style></defs><g id="Calque_2" data-name="Calque 2"><g id="Ramoloss"><path class="cls-1" d="M132.75,222C93.57,222,68,206.69,47.57,189.67c-12.24-10.21-28.33-29-28.33-45.33S53,122.51,75.12,112.5,108.88,94,132.75,94"/><path class="cls-1" d="M56.78,119.5c-8.35-6-10-14.38-8.93-26.85C49.39,75,62.68,61.82,77.54,63.12s25.65,16.63,24.11,34.23a17.46,17.46,0,0,1-.46,3.71"/><circle class="cls-2" cx="70.96" cy="82.49" r="2.5"/><path class="cls-3" d="M55,37c0-8.48-9.27-23.46-24.72-23.46S4,25.46,4,37,14.13,58.41,25.12,58.44,39.89,51.3,40.06,43.65A12.93,12.93,0,0,0,26.66,30.39c-7.38.17-8.76,3-8.76,5.61"/><path class="cls-3" d="M132.75,206.67c-24.83,0-50.6-15.08-64.15-30.8"/><path class="cls-4" d="M52.91,151.67s22.33,6.33,30,6.34c12.6,0,37.23-7.76,49.83-7.67"/><path class="cls-5" d="M59.24,153.2c0,6.11.91,22.68,7,23.44,5.32.66,8.53-14.31,8.53-19.67"/><circle class="cls-6" cx="117.91" cy="140" r="2.5"/><path class="cls-3" d="M17.25,68.33A69.86,69.86,0,0,0,8.75,101c0,18.5,6.5,26.66,6.5,26.66"/><path class="cls-3" d="M62.54,23S80.63,4,132.75,4"/><path class="cls-1" d="M132.75,222c39.18,0,64.78-15.31,85.17-32.33,12.24-10.21,28.33-29,28.33-45.33s-33.78-21.83-55.88-31.83S156.61,94,132.75,94"/><path class="cls-1" d="M208.72,119.5c8.35-6,10-14.38,8.93-26.85C216.1,75,202.81,61.82,188,63.12s-25.65,16.63-24.11,34.23a17.46,17.46,0,0,0,.46,3.71"/><circle class="cls-2" cx="194.53" cy="82.49" r="2.5"/><path class="cls-3" d="M210.5,37c0-8.48,9.27-23.46,24.72-23.46S261.47,25.46,261.49,37s-10.13,21.39-21.12,21.42-14.77-7.14-14.94-14.79a12.93,12.93,0,0,1,13.39-13.26c7.38.17,8.76,3,8.76,5.61"/><path class="cls-3" d="M132.75,206.67c24.83,0,50.6-15.08,64.15-30.8"/><path class="cls-3" d="M212.58,151.67s-22.33,6.33-30,6.34c-12.6,0-37.23-7.76-49.83-7.67"/><path class="cls-5" d="M206.25,153.2c0,6.11-.91,22.68-7,23.44-5.32.66-8.53-14.31-8.53-19.67"/><circle class="cls-6" cx="147.58" cy="140" r="2.5"/><path class="cls-3" d="M247.25,68.33a64.57,64.57,0,0,1,9.5,32.67c0,18.5-6.5,26.66-6.5,26.66"/><path class="cls-3" d="M203,23S184.87,4,132.75,4"/></g></g></svg>
